<?xml version="1.0" standalone="no"?>
<!DOCTYPE svg PUBLIC "-//W3C//DTD SVG 20010904//EN"
 "http://www.w3.org/TR/2001/REC-SVG-20010904/DTD/svg10.dtd">
<svg version="1.0" xmlns="http://www.w3.org/2000/svg"
 width="1104.000000pt" height="1103.000000pt" viewBox="0 0 1104.000000 1103.000000"
 preserveAspectRatio="xMidYMid meet">

<g transform="translate(0.000000,1103.000000) scale(0.100000,-0.100000)"
fill="#000000" stroke="none">
<path d="M5085 10865 c-725 -63 -1352 -239 -1990 -558 -728 -364 -1390 -919
-1890 -1586 -385 -513 -681 -1114 -864 -1751 -263 -918 -266 -1971 -9 -2880
166 -590 379 -1056 705 -1548 518 -782 1254 -1430 2088 -1842 303 -149 575
-255 906 -350 951 -276 2006 -276 2958 0 445 129 817 287 1216 518 807 468
1483 1144 1947 1947 240 414 391 773 527 1245 266 925 266 1973 0 2900 -60
211 -143 454 -205 601 -364 864 -912 1589 -1641 2167 -736 585 -1658 978
-2584 1102 -372 50 -830 63 -1164 35z m790 -185 c977 -68 1928 -420 2715
-1005 388 -288 773 -672 1065 -1060 331 -440 597 -949 770 -1470 246 -739 320
-1496 225 -2280 -195 -1603 -1166 -3052 -2585 -3857 -643 -365 -1300 -574
-2055 -655 -232 -24 -767 -24 -1005 1 -550 57 -1054 188 -1540 398 -1559 674
-2692 2067 -3034 3730 -109 527 -131 1149 -60 1698 112 871 454 1713 986 2426
152 203 289 360 493 564 269 270 501 460 810 665 745 494 1618 789 2510 848
123 8 573 6 705 -3z"/>
<path d="M6768 9470 c-200 -34 -383 -168 -476 -349 -49 -95 -71 -169 -79 -269
-20 -260 132 -523 371 -641 258 -128 570 -78 771 124 128 129 184 256 192 438
6 121 -6 201 -44 292 -121 288 -428 456 -735 405z"/>
<path d="M4167 8249 c-95 -23 -150 -64 -782 -597 -635 -533 -640 -538 -675
-606 -31 -62 -35 -77 -35 -150 0 -68 4 -90 28 -138 41 -84 136 -159 231 -182
57 -14 151 -8 207 13 56 21 90 49 990 807 l215 181 462 5 c254 3 462 2 462 -2
0 -4 -52 -108 -116 -231 -197 -381 -265 -510 -324 -624 -32 -60 -117 -225
-190 -365 -73 -140 -164 -315 -202 -389 -38 -73 -236 -398 -439 -721 l-370
-589 -352 -114 c-341 -111 -1180 -382 -1282 -414 -151 -47 -248 -119 -294
-217 -105 -224 27 -514 264 -582 97 -27 167 -16 435 71 129 42 388 126 575
186 1013 328 1069 347 1131 387 33 22 80 62 103 90 24 28 184 275 356 549 172
273 317 498 321 499 5 2 63 -72 129 -164 65 -92 237 -329 380 -527 544 -750
490 -671 488 -718 -4 -67 -20 -292 -74 -1052 -55 -768 -55 -763 -6 -869 55
-119 186 -214 325 -235 185 -29 361 82 427 269 11 32 26 188 50 540 19 272 46
650 60 840 50 698 48 647 30 735 -22 107 -54 164 -229 405 -761 1046 -806
1109 -813 1125 -2 8 76 170 176 362 478 924 628 1208 637 1208 8 0 96 -93 563
-595 203 -219 227 -238 323 -259 25 -5 403 -11 888 -12 976 -3 911 -9 1011 90
72 72 101 145 101 251 0 137 -63 244 -177 300 l-50 25 -782 3 -782 3 -318 347
c-175 191 -372 405 -437 477 -66 71 -149 165 -185 208 -137 162 -347 292 -581
359 -74 22 -84 22 -955 24 -503 1 -896 -2 -918 -7z"/>
</g>
</svg>
