<?xml version="1.0" standalone="no"?>
<!DOCTYPE svg PUBLIC "-//W3C//DTD SVG 20010904//EN"
 "http://www.w3.org/TR/2001/REC-SVG-20010904/DTD/svg10.dtd">
<svg version="1.0" xmlns="http://www.w3.org/2000/svg"
 width="1107.000000pt" height="1108.000000pt" viewBox="0 0 1107.000000 1108.000000"
 preserveAspectRatio="xMidYMid meet">

<g transform="translate(0.000000,1108.000000) scale(0.100000,-0.100000)"
fill="#000000" stroke="none">
<path d="M5125 10895 c-725 -63 -1352 -239 -1990 -558 -728 -364 -1390 -919
-1890 -1586 -385 -513 -681 -1114 -864 -1751 -263 -918 -266 -1971 -9 -2880
166 -590 379 -1056 705 -1548 518 -782 1254 -1430 2088 -1842 303 -149 575
-255 906 -350 951 -276 2006 -276 2958 0 445 129 817 287 1216 518 807 468
1483 1144 1947 1947 240 414 391 773 527 1245 266 925 266 1973 0 2900 -60
211 -143 454 -205 601 -364 864 -912 1589 -1641 2167 -736 585 -1658 978
-2584 1102 -372 50 -830 63 -1164 35z m900 -191 c1087 -101 2095 -534 2930
-1258 156 -136 434 -419 561 -572 711 -855 1119 -1857 1204 -2949 16 -205 14
-610 -5 -820 -45 -512 -155 -984 -332 -1435 -201 -510 -453 -947 -788 -1365
-693 -865 -1661 -1497 -2715 -1774 -454 -119 -859 -171 -1330 -171 -471 0
-872 52 -1330 171 -1202 314 -2288 1093 -2985 2143 -499 752 -775 1549 -856
2471 -15 167 -15 623 0 790 62 704 227 1302 522 1895 290 581 627 1036 1104
1489 460 437 1025 797 1630 1038 224 90 322 123 540 182 373 103 778 167 1160
185 143 6 526 -4 690 -20z"/>
<path d="M6827 9500 c-153 -27 -271 -87 -373 -188 -220 -218 -262 -550 -103
-819 19 -32 66 -90 105 -129 130 -132 314 -201 504 -191 174 10 301 68 431
197 71 70 94 100 127 170 57 119 66 159 66 295 1 99 -3 133 -22 195 -36 116
-85 196 -176 285 -122 121 -252 178 -431 189 -44 3 -102 1 -128 -4z"/>
<path d="M4213 8276 c-94 -23 -157 -65 -373 -247 -118 -100 -240 -203 -271
-229 -400 -335 -740 -624 -766 -651 -85 -90 -111 -241 -60 -351 30 -67 94
-130 167 -166 47 -23 68 -27 145 -27 130 0 156 15 440 255 132 112 362 305
510 430 149 125 297 250 330 278 l60 52 458 0 c341 0 457 -3 457 -12 0 -6 -44
-97 -99 -202 -144 -279 -344 -663 -416 -801 -73 -141 -170 -327 -285 -550 -73
-140 -244 -420 -712 -1165 -77 -122 -132 -199 -148 -207 -14 -7 -209 -71 -435
-144 -225 -72 -518 -166 -650 -209 -132 -43 -334 -109 -448 -146 -222 -71
-272 -98 -336 -178 -54 -67 -73 -138 -69 -246 3 -81 8 -105 35 -163 38 -79
113 -163 180 -200 70 -37 168 -53 244 -39 33 6 176 49 317 95 141 47 442 144
667 217 815 262 927 301 979 334 64 42 117 95 166 166 39 57 432 682 549 872
36 59 71 107 77 105 11 -2 70 -81 429 -577 62 -85 217 -299 345 -475 l232
-320 -6 -65 c-28 -293 -117 -1654 -114 -1735 4 -89 8 -107 36 -162 124 -242
438 -309 633 -135 48 43 100 130 118 197 15 57 141 1831 141 1980 0 166 -24
221 -202 465 -129 177 -392 540 -616 850 -58 80 -136 187 -174 239 l-68 93 69
132 c127 242 389 746 603 1161 77 149 143 273 147 278 4 4 140 -136 302 -310
447 -483 460 -496 532 -529 l62 -29 880 0 880 0 57 28 c63 31 115 84 150 156
19 39 23 62 23 151 0 91 -3 111 -24 150 -29 56 -85 116 -131 140 -75 38 -120
40 -890 40 -730 0 -749 0 -762 19 -8 11 -66 75 -129 143 -162 176 -685 749
-819 899 -127 142 -339 269 -545 326 l-100 28 -860 2 c-666 1 -872 -1 -912
-11z"/>
</g>
</svg>
